<svg width="118" height="83" viewBox="0 0 118 83" fill="none" xmlns="http://www.w3.org/2000/svg">
<path d="M45.12 66.48C43.7067 66.48 42.44 66.24 41.32 65.76C40.2 65.2533 39.24 64.5467 38.44 63.64C37.6667 62.7067 37.0667 61.5867 36.64 60.28C36.24 58.9467 36.04 57.44 36.04 55.76C36.04 54.08 36.2533 52.5733 36.68 51.24C37.1333 49.9067 37.76 48.7867 38.56 47.88C39.3867 46.9467 40.36 46.24 41.48 45.76C42.6267 45.28 43.8933 45.04 45.28 45.04C46.24 45.04 47.12 45.1467 47.92 45.36C48.72 45.5733 49.4133 45.8667 50 46.24C50.5867 46.6133 51.04 47.0533 51.36 47.56C51.68 48.0667 51.84 48.6133 51.84 49.2C51.84 49.84 51.6667 50.3467 51.32 50.72C51 51.0667 50.5333 51.24 49.92 51.24C49.3067 51.24 48.84 51.0667 48.52 50.72C48.2 50.3467 48.04 49.8933 48.04 49.36C48.04 48.9067 48.16 48.52 48.4 48.2C48.6667 47.8533 49.0133 47.5733 49.44 47.36V47.28C48.56 46.7467 47.2533 46.48 45.52 46.48C44.4533 46.48 43.4933 46.6667 42.64 47.04C41.7867 47.4133 41.0533 47.9467 40.44 48.64C39.8533 49.3067 39.4 50.12 39.08 51.08C38.76 52.0133 38.6 53.04 38.6 54.16V56.72C38.6 57.92 38.76 59.0133 39.08 60C39.4 60.96 39.8533 61.7867 40.44 62.48C41.0533 63.1733 41.7733 63.7067 42.6 64.08C43.4533 64.4533 44.3867 64.64 45.4 64.64C46.2533 64.64 47 64.5467 47.64 64.36C48.3067 64.1467 48.88 63.8667 49.36 63.52C49.8667 63.1733 50.2933 62.76 50.64 62.28C51.0133 61.8 51.3467 61.2933 51.64 60.76L52.64 61.36C52.3733 62 52.0267 62.6267 51.6 63.24C51.2 63.8533 50.6933 64.4 50.08 64.88C49.4667 65.36 48.7467 65.7467 47.92 66.04C47.12 66.3333 46.1867 66.48 45.12 66.48ZM61.3972 66.48C59.4505 66.48 57.9172 65.9867 56.7972 65C55.7039 63.9867 55.1572 62.64 55.1572 60.96C55.1572 59.9733 55.3172 59.12 55.6372 58.4C55.9572 57.6533 56.4772 57.0267 57.1972 56.52C57.9172 56.0133 58.8372 55.64 59.9572 55.4C61.1039 55.1333 62.4905 55 64.1172 55H67.6772V51.68C67.6772 49.9733 67.2372 48.68 66.3572 47.8C65.4772 46.8933 64.1972 46.44 62.5172 46.44C61.5572 46.44 60.7305 46.52 60.0372 46.68C59.3439 46.84 58.8105 47.0533 58.4372 47.32V47.4C58.7305 47.5333 58.9839 47.7467 59.1972 48.04C59.4372 48.3067 59.5572 48.6667 59.5572 49.12C59.5572 49.6533 59.3972 50.08 59.0772 50.4C58.7572 50.6933 58.3305 50.84 57.7972 50.84C57.2639 50.84 56.8372 50.6933 56.5172 50.4C56.1972 50.08 56.0372 49.6267 56.0372 49.04C56.0372 48.5333 56.1972 48.04 56.5172 47.56C56.8639 47.08 57.3439 46.6533 57.9572 46.28C58.5972 45.9067 59.3572 45.6133 60.2372 45.4C61.1172 45.16 62.1039 45.04 63.1972 45.04C65.3039 45.04 66.9572 45.5867 68.1572 46.68C69.3839 47.7733 69.9972 49.3333 69.9972 51.36V64.72H73.0772V65.76C72.8105 65.9467 72.4239 66.0933 71.9172 66.2C71.4372 66.3333 70.9439 66.4 70.4372 66.4C68.6772 66.4 67.7972 65.52 67.7972 63.76V62.72H67.6372C67.4505 63.1733 67.1972 63.6267 66.8772 64.08C66.5839 64.5333 66.1839 64.9467 65.6772 65.32C65.1705 65.6667 64.5705 65.9467 63.8772 66.16C63.1839 66.3733 62.3572 66.48 61.3972 66.48ZM62.2372 64.88C63.7839 64.88 65.0772 64.4667 66.1172 63.64C67.1572 62.8133 67.6772 61.6933 67.6772 60.28V56.2H64.4372C63.1572 56.2 62.0772 56.2933 61.1972 56.48C60.3439 56.6667 59.6505 56.9467 59.1172 57.32C58.6105 57.6667 58.2372 58.1067 57.9972 58.64C57.7839 59.1467 57.6772 59.7333 57.6772 60.4V61.32C57.6772 62.4133 58.0772 63.28 58.8772 63.92C59.6772 64.56 60.7972 64.88 62.2372 64.88ZM74.7262 72.6H77.8463V47.44L74.7262 47.04V46L80.1663 45.12V48.76H80.3263C80.7796 47.7467 81.5129 46.88 82.5263 46.16C83.5396 45.4133 84.8996 45.04 86.6063 45.04C89.2196 45.04 91.2729 45.9467 92.7663 47.76C94.2863 49.5733 95.0463 52.24 95.0463 55.76C95.0463 59.28 94.2863 61.9467 92.7663 63.76C91.2729 65.5733 89.2196 66.48 86.6063 66.48C84.9263 66.48 83.5663 66.12 82.5263 65.4C81.4863 64.6533 80.7529 63.7867 80.3263 62.8H80.1663V72.6H84.0863V74H74.7262V72.6ZM86.0063 64.8C88.0863 64.8 89.6863 64.12 90.8063 62.76C91.9529 61.3733 92.5263 59.5067 92.5263 57.16V54.36C92.5263 52.0133 91.9529 50.16 90.8063 48.8C89.6863 47.4133 88.0863 46.72 86.0063 46.72C85.2596 46.72 84.5396 46.8267 83.8463 47.04C83.1529 47.2533 82.5263 47.56 81.9663 47.96C81.4329 48.36 80.9929 48.84 80.6463 49.4C80.3263 49.96 80.1663 50.6 80.1663 51.32V60.2C80.1663 60.92 80.3263 61.56 80.6463 62.12C80.9929 62.68 81.4329 63.16 81.9663 63.56C82.5263 63.96 83.1529 64.2667 83.8463 64.48C84.5396 64.6933 85.2596 64.8 86.0063 64.8ZM107.588 66.48C104.814 66.48 102.614 65.5467 100.988 63.68C99.3611 61.8133 98.5478 59.1733 98.5478 55.76C98.5478 54.1333 98.7611 52.6533 99.1878 51.32C99.6411 49.9867 100.268 48.8667 101.068 47.96C101.868 47.0267 102.814 46.3067 103.908 45.8C105.001 45.2933 106.201 45.04 107.508 45.04C108.788 45.04 109.934 45.28 110.948 45.76C111.988 46.24 112.868 46.9067 113.588 47.76C114.308 48.5867 114.854 49.6 115.228 50.8C115.628 51.9733 115.828 53.2533 115.828 54.64V55.32H101.108V56.6C101.108 59.1867 101.734 61.1733 102.988 62.56C104.241 63.9467 105.881 64.64 107.908 64.64C109.588 64.64 110.948 64.2667 111.988 63.52C113.054 62.7733 113.868 61.8533 114.428 60.76L115.428 61.36C115.161 62 114.801 62.6267 114.348 63.24C113.894 63.8533 113.334 64.4 112.668 64.88C112.028 65.36 111.281 65.7467 110.428 66.04C109.601 66.3333 108.654 66.48 107.588 66.48ZM101.108 53.96H113.388V53.72C113.388 52.68 113.268 51.72 113.028 50.84C112.788 49.96 112.414 49.2 111.908 48.56C111.428 47.8933 110.814 47.3867 110.068 47.04C109.348 46.6667 108.494 46.48 107.508 46.48C106.521 46.48 105.628 46.6533 104.828 47C104.054 47.3467 103.388 47.84 102.828 48.48C102.268 49.12 101.841 49.88 101.548 50.76C101.254 51.64 101.108 52.6133 101.108 53.68V53.96Z" fill="#3C7655"/>
<path d="M38.742 37.51H39.848V28.718H38.742V28.228H41.808V28.718H40.702V32.708H46.064V28.718H44.958V28.228H48.024V28.718H46.918V37.51H48.024V38H44.958V37.51H46.064V33.226H40.702V37.51H41.808V38H38.742V37.51ZM58.9098 37.622C59.4231 37.622 59.8804 37.5333 60.2818 37.356C60.6924 37.1693 61.0378 36.908 61.3178 36.572C61.5978 36.236 61.8078 35.83 61.9478 35.354C62.0971 34.8687 62.1718 34.3227 62.1718 33.716V32.512C62.1718 31.9147 62.0971 31.3733 61.9478 30.888C61.8078 30.4027 61.5978 29.992 61.3178 29.656C61.0378 29.32 60.6924 29.0633 60.2818 28.886C59.8804 28.6993 59.4231 28.606 58.9098 28.606C58.3871 28.606 57.9251 28.6993 57.5238 28.886C57.1224 29.0633 56.7818 29.32 56.5018 29.656C56.2218 29.992 56.0071 30.4027 55.8578 30.888C55.7178 31.3733 55.6478 31.9147 55.6478 32.512V33.716C55.6478 34.3227 55.7178 34.8687 55.8578 35.354C56.0071 35.83 56.2218 36.236 56.5018 36.572C56.7818 36.908 57.1224 37.1693 57.5238 37.356C57.9251 37.5333 58.3871 37.622 58.9098 37.622ZM58.9098 38.168C58.2658 38.168 57.6824 38.056 57.1598 37.832C56.6371 37.608 56.1938 37.2813 55.8298 36.852C55.4658 36.4227 55.1858 35.8953 54.9898 35.27C54.7938 34.6353 54.6958 33.9167 54.6958 33.114C54.6958 32.3113 54.7938 31.5973 54.9898 30.972C55.1858 30.3373 55.4658 29.8053 55.8298 29.376C56.1938 28.9467 56.6371 28.62 57.1598 28.396C57.6824 28.172 58.2658 28.06 58.9098 28.06C59.5538 28.06 60.1371 28.172 60.6598 28.396C61.1824 28.62 61.6258 28.9467 61.9898 29.376C62.3538 29.8053 62.6338 30.3373 62.8298 30.972C63.0258 31.5973 63.1238 32.3113 63.1238 33.114C63.1238 33.9167 63.0258 34.6353 62.8298 35.27C62.6338 35.8953 62.3538 36.4227 61.9898 36.852C61.6258 37.2813 61.1824 37.608 60.6598 37.832C60.1371 38.056 59.5538 38.168 58.9098 38.168ZM71.6626 37.51H73.0486V28.746H70.2206V30.468H69.4926V28.228H77.4586V30.468H76.7306V28.746H73.9026V37.51H75.2886V38H71.6626V37.51ZM83.863 37.51H84.969V28.718H83.863V28.228H90.793V30.468H90.065V28.746H85.823V32.666H88.945V31.518H89.575V34.332H88.945V33.184H85.823V37.482H90.191V35.676H90.919V38H83.863V37.51ZM97.6136 37.51H98.7196V28.718H97.6136V28.228H100.68V28.718H99.5736V37.482H103.522V35.676H104.25V38H97.6136V37.51Z" fill="#01110A"/>
<path d="M18.56 66.768C15.4027 66.768 12.9707 66.2773 11.264 65.296C9.6 64.3147 8.40533 63.12 7.68 61.712H7.424V66H4.096V52.624H7.424V56.016C7.424 57.168 7.59467 58.256 7.936 59.28C8.32 60.304 8.91733 61.1787 9.728 61.904C10.5813 62.6293 11.6693 63.2053 12.992 63.632C14.3147 64.0587 15.9573 64.272 17.92 64.272C21.9307 64.272 24.8533 63.44 26.688 61.776C28.5227 60.0693 29.44 57.744 29.44 54.8C29.44 53.4347 29.2267 52.2613 28.8 51.28C28.3733 50.256 27.776 49.3813 27.008 48.656C26.24 47.9307 25.3013 47.3333 24.192 46.864C23.1253 46.352 21.9307 45.9253 20.608 45.584L16.768 44.56C12.5867 43.4507 9.51467 41.9147 7.552 39.952C5.632 37.9467 4.672 35.344 4.672 32.144C4.672 30.3093 4.992 28.688 5.632 27.28C6.31467 25.8293 7.25333 24.6133 8.448 23.632C9.68533 22.608 11.1573 21.84 12.864 21.328C14.5707 20.816 16.4693 20.56 18.56 20.56C21.4613 20.56 23.7227 21.0293 25.344 21.968C27.008 22.9067 28.16 23.9947 28.8 25.232H29.12V21.328H32.448V34.064H29.12V30.544C29.12 28.2827 28.2667 26.4693 26.56 25.104C24.8533 23.7387 22.1867 23.056 18.56 23.056C15.232 23.056 12.6933 23.8027 10.944 25.296C9.19467 26.7893 8.32 28.8587 8.32 31.504C8.32 34.1493 9.152 36.1547 10.816 37.52C12.48 38.8427 14.72 39.888 17.536 40.656L21.248 41.616C25.3867 42.7253 28.3947 44.2827 30.272 46.288C32.1493 48.2933 33.088 50.832 33.088 53.904C33.088 55.7813 32.768 57.5093 32.128 59.088C31.5307 60.6667 30.6133 62.032 29.376 63.184C28.1813 64.2933 26.6667 65.168 24.832 65.808C23.04 66.448 20.9493 66.768 18.56 66.768Z" fill="#3C7655"/>
</svg>
